<svg width="142" height="32" viewBox="0 0 142 32" fill="none" xmlns="http://www.w3.org/2000/svg">
<g clip-path="url(#clip0_12_66788)">
<path d="M5.375 8.875L5.38055 8.88387L5.375 8.875L9.71819 15.5097H15.3449L15.3327 15.492L15.3449 15.5097L14.0669 13.5566H18.1228L13.2815 20.9544L16.0938 25.25L26.8125 8.875H5.375Z" fill="#EF233C"/>
</g>
<g clip-path="url(#clip1_12_66788)">
<path d="M50.2811 19.6467H53.9892C53.5688 20.0687 53.0369 20.3937 52.3903 20.6217C51.6697 20.8762 50.843 21.0029 49.909 21.0029C48.975 21.0029 48.115 20.841 47.4072 20.5149C46.7006 20.1899 46.158 19.7029 45.7805 19.0518C45.403 18.4018 45.2143 17.5965 45.2143 16.6347C45.2143 15.6729 45.3859 14.8818 45.729 14.2605C46.0722 13.6391 46.5622 13.172 47.2013 12.8613C47.8394 12.5506 48.5975 12.3953 49.4768 12.3953C50.1899 12.3953 50.8355 12.4834 51.4124 12.6608C51.9893 12.8382 52.4729 13.0916 52.8643 13.4243C53.2557 13.757 53.512 14.1558 53.6364 14.6218H58.4533C58.2334 13.3923 57.7391 12.3038 56.9713 11.3564C56.2025 10.41 55.1902 9.66744 53.9345 9.13091C52.6788 8.59328 51.1786 8.32556 49.4361 8.32556C48.1729 8.32556 46.9965 8.50624 45.9049 8.8665C44.8133 9.22676 43.8524 9.75668 43.0225 10.4563C42.1914 11.1559 41.5469 12.0218 41.0869 13.053C40.6269 14.0853 40.3974 15.2796 40.3974 16.6358C40.3974 17.992 40.6269 19.1873 41.0869 20.2185C41.5469 21.2508 42.1818 22.1157 42.9914 22.8153C43.801 23.5148 44.7339 24.0448 45.7912 24.4061C46.8475 24.7664 47.9798 24.9471 49.1884 24.9471C50.4784 24.9471 51.6032 24.7532 52.5651 24.3643C53.5259 23.9754 54.3216 23.4388 54.9532 22.7525C54.9779 22.726 55.0014 22.6996 55.025 22.672V24.946H58.597V16.2116H50.28V19.6467H50.2811Z" fill="#EF233C"/>
<path d="M67.1413 8.68469L60.0886 24.9459H65.2036L66.5193 21.7234H74.1093L75.4196 24.9459H80.5572L73.4819 8.68469H67.1413ZM68.13 17.7804L70.3207 12.4162L72.504 17.7804H68.13Z" fill="#EF233C"/>
<path d="M93.6439 19.682L89.4382 8.68469H82.0466V24.9459H86.5965V13.0122L91.2494 24.9459H96.0255L100.658 12.9858V24.9459H105.228V8.68469H97.8163L93.6439 19.682Z" fill="#EF233C"/>
<path d="M107.314 8.68469V24.9459H121.952V21.0062V21.0018H112.408V18.5538H121.232V15.0779V15.0768H112.408V12.6288H121.952V8.68469H107.314Z" fill="#EF233C"/>
<path d="M124.038 8.68469V12.544H133.743L125.91 24.9459H131.455L139.006 12.6068L141.405 8.68469H124.038Z" fill="#EF233C"/>
</g>
<defs>
<clipPath id="clip0_12_66788">
<rect width="32" height="32" rx="8" fill="white"/>
</clipPath>
<clipPath id="clip1_12_66788">
<rect width="102" height="17" fill="white" transform="translate(40 8)"/>
</clipPath>
</defs>
</svg>
